<svg width="183" height="34" viewBox="0 0 183 34" fill="none" xmlns="http://www.w3.org/2000/svg">
  <path d="M38.1734 26.7723C32.7863 33.9853 22.5862 35.4564 15.3868 30.0583C14.1441 29.1263 13.0408 28.021 12.1104 26.776C17.4981 25.5921 20.908 20.2549 19.727 14.8567C19.3182 12.9879 18.3836 11.2757 17.0337 9.92282C15.6838 8.56995 13.9752 7.63315 12.1104 7.22339C17.4991 0.0123898 27.7016 -1.45603 34.898 3.94612C36.1404 4.87847 37.2434 5.98409 38.1734 7.22941C32.7876 8.41725 29.3838 13.7569 30.5712 19.154C30.9811 21.0183 31.9147 22.7262 33.2617 24.076C34.6087 25.4259 36.313 26.3615 38.1734 26.7723Z" fill="white"/>
  <path d="M50.307 16.9993C50.3036 22.5286 45.8283 27.0081 40.3108 27.005C39.5925 27.0042 38.8765 26.9257 38.175 26.771C40.2807 23.9499 41.4187 20.5216 41.4187 16.9987C41.4187 13.4757 40.2807 10.0474 38.175 7.22639C43.5637 6.04022 48.8921 9.45661 50.0757 14.8571C50.2302 15.56 50.3085 16.2776 50.3093 16.9973" fill="white"/>
  <path d="M8.86543 16.9994C8.86047 20.5246 9.99937 23.9558 12.1104 26.7757C6.72269 27.9511 1.40405 24.5274 0.230731 19.1286C-0.942587 13.7298 2.47425 8.39954 7.86164 7.2234C9.26147 6.91772 10.7106 6.91772 12.1104 7.2234C9.99931 10.043 8.86039 13.474 8.86543 16.999" fill="white"/>
  <path d="M66.2806 25.5766V8.46156H70.5403C72.0109 8.46156 73.2407 8.67709 74.2295 9.10813C75.2438 9.51382 76.0552 10.1097 76.6637 10.8957C77.2722 11.6817 77.7033 12.6326 77.9568 13.7482C78.2357 14.8385 78.3752 16.0682 78.3752 17.4374C78.3752 18.9334 78.185 20.2012 77.8047 21.2408C77.4244 22.2804 76.9172 23.1298 76.2834 23.789C75.6495 24.4229 74.9268 24.8793 74.1155 25.1582C73.3041 25.4371 72.4673 25.5766 71.6052 25.5766H66.2806ZM60.3093 3.44115V30.597H72.0236C74.1028 30.597 75.903 30.2547 77.4244 29.5701C78.9711 28.8601 80.2515 27.8966 81.2657 26.6796C82.3053 25.4625 83.0787 24.0172 83.5858 22.3438C84.0929 20.6703 84.3464 18.8447 84.3464 16.8669C84.3464 14.6103 84.0295 12.6452 83.3956 10.9718C82.7871 9.2983 81.925 7.90374 80.8093 6.78809C79.719 5.67245 78.4132 4.83571 76.8919 4.27789C75.3959 3.72006 73.7732 3.44115 72.0236 3.44115H60.3093Z" fill="white"/>
  <path d="M92.5697 21.5831H86.7886C86.7632 23.2566 87.0675 24.7018 87.7014 25.9189C88.3353 27.136 89.1847 28.1375 90.2496 28.9235C91.3399 29.7096 92.5824 30.2801 93.9769 30.635C95.3968 31.0154 96.8548 31.2055 98.3507 31.2055C100.202 31.2055 101.824 30.99 103.219 30.559C104.639 30.1279 105.818 29.5321 106.756 28.7714C107.72 27.9854 108.442 27.0599 108.924 25.995C109.406 24.93 109.647 23.7764 109.647 22.5339C109.647 21.0126 109.317 19.7702 108.658 18.8067C108.024 17.8178 107.263 17.0318 106.376 16.4486C105.488 15.8654 104.588 15.447 103.675 15.1935C102.788 14.9146 102.091 14.7244 101.584 14.623C99.8848 14.1919 98.5029 13.837 97.4379 13.558C96.3984 13.2791 95.5743 13.0002 94.9658 12.7213C94.3826 12.4424 93.9896 12.1381 93.7867 11.8085C93.5839 11.4789 93.4825 11.0478 93.4825 10.5154C93.4825 9.93219 93.6093 9.45043 93.8628 9.0701C94.1164 8.68976 94.4333 8.37282 94.8136 8.11926C95.2193 7.86571 95.6631 7.68822 96.1448 7.5868C96.6266 7.48537 97.1083 7.43466 97.5901 7.43466C98.3254 7.43466 98.9973 7.49805 99.6059 7.62483C100.24 7.75161 100.798 7.96713 101.279 8.2714C101.761 8.57566 102.141 8.99403 102.42 9.5265C102.725 10.059 102.902 10.7309 102.953 11.5423H108.734C108.734 9.97022 108.43 8.63905 107.821 7.54876C107.238 6.43312 106.439 5.52031 105.425 4.81036C104.411 4.1004 103.244 3.59329 101.926 3.28902C100.633 2.9594 99.2762 2.79459 97.8563 2.79459C96.6392 2.79459 95.4222 2.9594 94.2051 3.28902C92.988 3.61864 91.8977 4.12575 90.9342 4.81036C89.9707 5.49496 89.1847 6.35705 88.5762 7.39663C87.993 8.41085 87.7014 9.61524 87.7014 11.0098C87.7014 12.2522 87.9296 13.3172 88.386 14.2046C88.8678 15.0667 89.489 15.7893 90.2496 16.3725C91.0103 16.9557 91.8724 17.4374 92.8359 17.8178C93.7994 18.1728 94.7883 18.477 95.8025 18.7306C96.7914 19.0095 97.7676 19.2631 98.7311 19.4913C99.6946 19.7195 100.557 19.9857 101.317 20.29C102.078 20.5942 102.687 20.9746 103.143 21.431C103.625 21.8874 103.866 22.4832 103.866 23.2185C103.866 23.9031 103.688 24.4736 103.333 24.93C102.978 25.3611 102.534 25.7034 102.002 25.9569C101.469 26.2105 100.899 26.388 100.29 26.4894C99.6819 26.5655 99.1114 26.6035 98.5789 26.6035C97.7929 26.6035 97.0323 26.5148 96.2969 26.3373C95.5616 26.1344 94.9151 25.8428 94.3572 25.4625C93.8248 25.0568 93.3937 24.537 93.0641 23.9031C92.7345 23.2692 92.5697 22.4959 92.5697 21.5831Z" fill="white"/>
  <path d="M132.825 27.5163L133.433 30.597H137.237V15.9161H125.827V20.366H131.836C131.658 22.2677 131.025 23.7256 129.934 24.7399C128.869 25.7287 127.348 26.2232 125.37 26.2232C124.026 26.2232 122.885 25.9696 121.947 25.4625C121.009 24.93 120.248 24.2328 119.665 23.3707C119.082 22.5086 118.651 21.5451 118.372 20.4801C118.119 19.3898 117.992 18.2742 117.992 17.1332C117.992 15.9415 118.119 14.7878 118.372 13.6721C118.651 12.5565 119.082 11.5676 119.665 10.7055C120.248 9.81809 121.009 9.12081 121.947 8.6137C122.885 8.08123 124.026 7.815 125.37 7.815C126.815 7.815 128.045 8.19533 129.059 8.956C130.074 9.71667 130.758 10.8577 131.113 12.379H136.818C136.666 10.8323 136.248 9.46311 135.563 8.2714C134.879 7.07968 134.004 6.07814 132.939 5.26676C131.899 4.45538 130.72 3.84684 129.402 3.44115C128.109 3.01011 126.765 2.79459 125.37 2.79459C123.291 2.79459 121.415 3.16224 119.741 3.89755C118.093 4.63287 116.699 5.64709 115.558 6.94023C114.417 8.23336 113.542 9.7547 112.933 11.5042C112.325 13.2284 112.02 15.1047 112.02 17.1332C112.02 19.1109 112.325 20.9619 112.933 22.6861C113.542 24.3849 114.417 25.8682 115.558 27.136C116.699 28.4037 118.093 29.4053 119.741 30.1406C121.415 30.8506 123.291 31.2055 125.37 31.2055C126.689 31.2055 127.995 30.9393 129.288 30.4068C130.581 29.849 131.76 28.8855 132.825 27.5163Z" fill="white"/>
  <path d="M146.281 20.7844C146.281 19.9984 146.357 19.225 146.509 18.4644C146.661 17.7037 146.914 17.0318 147.269 16.4486C147.65 15.8654 148.144 15.3963 148.753 15.0413C149.361 14.661 150.122 14.4708 151.035 14.4708C151.948 14.4708 152.708 14.661 153.317 15.0413C153.951 15.3963 154.445 15.8654 154.8 16.4486C155.18 17.0318 155.447 17.7037 155.599 18.4644C155.751 19.225 155.827 19.9984 155.827 20.7844C155.827 21.5704 155.751 22.3438 155.599 23.1044C155.447 23.8397 155.18 24.5117 154.8 25.1202C154.445 25.7034 153.951 26.1725 153.317 26.5274C152.708 26.8824 151.948 27.0599 151.035 27.0599C150.122 27.0599 149.361 26.8824 148.753 26.5274C148.144 26.1725 147.65 25.7034 147.269 25.1202C146.914 24.5117 146.661 23.8397 146.509 23.1044C146.357 22.3438 146.281 21.5704 146.281 20.7844ZM140.88 20.7844C140.88 22.3564 141.121 23.7764 141.602 25.0441C142.084 26.3119 142.769 27.4022 143.656 28.315C144.544 29.2025 145.609 29.8871 146.851 30.3688C148.093 30.8506 149.488 31.0914 151.035 31.0914C152.581 31.0914 153.976 30.8506 155.218 30.3688C156.486 29.8871 157.564 29.2025 158.451 28.315C159.339 27.4022 160.023 26.3119 160.505 25.0441C160.987 23.7764 161.228 22.3564 161.228 20.7844C161.228 19.2123 160.987 17.7924 160.505 16.5246C160.023 15.2315 159.339 14.1412 158.451 13.2538C157.564 12.341 156.486 11.6437 155.218 11.1619C153.976 10.6548 152.581 10.4013 151.035 10.4013C149.488 10.4013 148.093 10.6548 146.851 11.1619C145.609 11.6437 144.544 12.341 143.656 13.2538C142.769 14.1412 142.084 15.2315 141.602 16.5246C141.121 17.7924 140.88 19.2123 140.88 20.7844Z" fill="white"/>
  <path d="M175.617 30.597L182.273 10.9337H176.91L172.764 24.3595H172.688L168.543 10.9337H162.876L169.608 30.597H175.617Z" fill="white"/>
</svg>
