<?xml version="1.0" encoding="utf-8"?>
<!-- Generator: Adobe Illustrator 26.0.3, SVG Export Plug-In . SVG Version: 6.00 Build 0)  -->
<svg version="1.1" id="Layer_1" xmlns="http://www.w3.org/2000/svg" xmlns:xlink="http://www.w3.org/1999/xlink" x="0px" y="0px"
	 viewBox="0 0 1497.5 220.1" style="enable-background:new 0 0 1497.5 220.1;" xml:space="preserve">
<style type="text/css">
	.st0{fill:#ffffff;}
</style>
<g id="Layer_3">
	<path id="Path_35" class="st0" d="M534.9,16.7v181h-39.1L421.7,67.6v130.1h-35v-181h39.1l74.1,130.1V16.7H534.9z"/>
	<path id="Path_36" class="st0" d="M545.9,144.2V70.2h32.9v72c0,20.6,12.1,26.7,24.2,26.7c14.9,0,29.3-9.8,29.3-30.9V70.2h32.9
		v127.5h-32.9v-19c-4.1,7.7-17,21.1-37,21.1C567.3,199.8,546,182.8,545.9,144.2"/>
	<path id="Path_37" class="st0" d="M709.3,70.2l29.3,81.8L768,70.2h36.5L753,197.7h-28.8L672.8,70.2H709.3z"/>
	<path id="Path_38" class="st0" d="M914,197.7h-31.6v-20.1c-10.6,14.2-27.3,22.4-45,22.1c-26.7,0-42.7-17.5-42.7-40.4
		c0-33.9,36-42.7,86.4-39.9c0-14.9-6.7-24.7-25.2-24.7c-15.9,0-22.9,8.7-24.7,16.5h-32.4c5.4-27.8,26.2-43.2,59.1-43.2
		c28.5,0,56.1,11.3,56.1,58.6L914,197.7L914,197.7z M881.1,141.1c-25.5-2.8-53.5,0.8-53.5,16.7c0,10.5,7.7,15.9,21.3,15.2
		C863.6,172.3,878.5,157.6,881.1,141.1"/>
	<rect id="Rectangle_11" x="923.6" y="12.6" class="st0" width="32.9" height="185.1"/>
	<path id="Path_39" class="st0" d="M1091.4,142.2h-94.4c2.3,17,14.9,28.8,33.7,28.8c14.7,0,22.1-7.7,26-16.4h33.2
		c-5.7,23.9-24.2,45.2-59.1,45.2c-42.7,0-66.1-29.6-66.1-65.8c0-38.3,25.5-65.8,65.6-65.8c30.3,0,61.7,18.8,62,64
		C1092.2,135.5,1092,138.8,1091.4,142.2 M1058.8,119.5c-1.3-12.3-10.3-24.7-27.8-24.7c-19.8,0-28.8,11.3-32.4,24.7H1058.8z"/>
	<path id="Path_40" class="st0" d="M1220.6,123.7v74.1h-32.9v-72c0-20.6-12.1-26.8-24.2-26.8c-14.9,0-29.3,9.8-29.3,30.9v67.9h-32.9
		V70.2h32.9v19c4.1-7.7,17-21.1,37-21.1C1199.2,68.1,1220.5,85.1,1220.6,123.7"/>
	<path id="Path_41" class="st0" d="M1296.2,68.1c37.3,0,58.6,27.8,60.9,55.5h-32.4c-1.5-11.1-11.8-24.7-28.8-24.7
		c-21.1,0-33.4,16-33.4,35s12.3,35,33.4,35c17,0,27.3-13.6,28.8-24.7h32.4c-2.3,27.8-23.4,55.5-60.9,55.5
		c-41.7,0-66.6-29.6-66.6-65.8S1253.8,68.2,1296.2,68.1"/>
	<path id="Path_42" class="st0" d="M1491.6,142.2h-94.4c2.3,17,14.9,28.8,33.7,28.8c14.7,0,22.1-7.7,26-16.4h33.2
		c-5.7,23.9-24.2,45.2-59.1,45.2c-42.7,0-66.1-29.6-66.1-65.8c0-38.3,25.5-65.8,65.6-65.8c30.3,0,61.7,18.8,62,64
		C1492.5,135.5,1492.2,138.8,1491.6,142.2 M1459,119.6c-1.3-12.3-10.3-24.7-27.8-24.7c-19.8,0-28.8,11.3-32.4,24.7H1459z"/>
	<g id="Group_28">
		<path id="Path_63" class="st0" d="M249.1,172.3c-34.4,46-99.6,55.4-145.6,20.9c-7.9-5.9-15-13-20.9-20.9
			c34.4-7.6,56.2-41.6,48.6-76C125.8,72,106.9,53,82.5,47.7c34.4-46,99.6-55.4,145.6-20.9c7.9,5.9,15,13,20.9,20.9
			c-34.4,7.6-56.1,41.6-48.5,76.1C205.9,148,224.8,166.9,249.1,172.3"/>
		<path id="Path_64" class="st0" d="M326.6,110c0,35.3-28.6,63.8-63.9,63.8c-4.6,0-9.1-0.5-13.6-1.5c27.6-36.9,27.6-87.7,0-124.6
			c34.4-7.6,68.5,14.2,76,48.7C326.1,100.9,326.6,105.4,326.6,110"/>
		<path id="Path_65" class="st0" d="M61.8,110c0,22.5,7.2,44.4,20.7,62.3c-34.4,7.5-68.4-14.3-75.9-48.7s14.3-68.4,48.7-75.9
			c9-2,18.2-2,27.2,0C69,65.7,61.8,87.5,61.8,110"/>
	</g>
</g>
</svg>
