<svg width="55" height="60" viewBox="0 0 55 60" fill="none" xmlns="http://www.w3.org/2000/svg">
<g clip-path="url(#clip0_815_12277)">
<path d="M0.0483398 12.84C5.51208 5.088 14.5538 0 24.8286 0C41.5099 0 55.0483 13.44 55.0483 30C55.0483 46.56 41.5099 60 24.8286 60C14.989 60 6.21317 55.32 0.773615 48.096" fill="white"/>
<path d="M4.10989 47.5198C4.10989 47.5198 4.10989 37.0318 4.01319 35.8438C4.01319 34.7038 3.44506 28.1398 3.56593 27.0358L3.88022 27.0478L7.84506 46.8478L13.3934 45.8758L16.6209 27.5158H16.9835C17.1527 28.6438 16.6934 33.9718 16.6934 35.1118C16.5967 36.2998 16.5967 45.3118 16.5967 45.3118L22.2176 44.3398V16.7398L13.4418 15.2278L10.9758 32.1478C10.8912 32.1478 8.48571 14.3878 8.48571 14.3878L0 12.9238L0.689011 48.2038" fill="#1F2025"/>
<path d="M39.7693 38.5202L42.5495 38.1602L42.9121 40.8002L46.055 40.2002L43.033 20.2802L39.2857 19.6802L35.4176 42.0002L39.4066 41.4002L39.7693 38.5202Z" fill="#1F2025"/>
<path d="M23.6923 23.9999L27.923 24.4799V43.3199L33.1208 42.4799V24.8399L36.5054 25.1999V19.1999L23.6923 16.9199V23.9999Z" fill="#1F2025"/>
<path d="M40.9781 27.1201L40.3737 33.7201L41.9451 33.6001L41.3407 27.1201H40.9781Z" fill="white"/>
</g>
<defs>
<clipPath id="clip0_815_12277">
<rect width="55" height="60" fill="white"/>
</clipPath>
</defs>
</svg>
